<?xml version="1.0" encoding="UTF-8" standalone="no"?>
<!-- Created with Inkscape (http://www.inkscape.org/) -->

<svg
   width="500"
   height="500"
   viewBox="0 0 132.29166 132.29167"
   version="1.1"
   id="svg1"
   xml:space="preserve"
   inkscape:version="1.4 (e7c3feb100, 2024-10-09)"
   sodipodi:docname="Lab25a.svg"
   xmlns:inkscape="http://www.inkscape.org/namespaces/inkscape"
   xmlns:sodipodi="http://sodipodi.sourceforge.net/DTD/sodipodi-0.dtd"
   xmlns="http://www.w3.org/2000/svg"
   xmlns:svg="http://www.w3.org/2000/svg"><sodipodi:namedview
     id="namedview1"
     pagecolor="#ffffff"
     bordercolor="#666666"
     borderopacity="1.0"
     inkscape:showpageshadow="2"
     inkscape:pageopacity="0.0"
     inkscape:pagecheckerboard="0"
     inkscape:deskcolor="#d1d1d1"
     inkscape:document-units="mm"
     inkscape:zoom="1.908281"
     inkscape:cx="424.46579"
     inkscape:cy="177.64679"
     inkscape:window-width="1920"
     inkscape:window-height="1011"
     inkscape:window-x="0"
     inkscape:window-y="0"
     inkscape:window-maximized="1"
     inkscape:current-layer="layer1"
     showgrid="false" /><defs
     id="defs1" /><g
     inkscape:label="Layer 1"
     inkscape:groupmode="layer"
     id="layer1"><g
       id="g5" /><g
       id="g7"
       transform="rotate(44.493492,66.145835,66.760002)" /><g
       id="g14"
       transform="matrix(2.1232967,0,0,2.1232967,-74.301397,-74.301396)"><path
         d="m 61.853589,41.920955 v 4.805391 c -0.546265,0.107032 -1.087832,0.237036 -1.623157,0.389641 -0.987757,0.320965 -1.948858,0.71909 -2.874243,1.190625 -0.787744,0.412557 -1.546911,0.877692 -2.272213,1.392163 l -3.531051,-3.359485 -5.916434,6.218742 3.638021,3.461287 c -0.203186,0.311583 -0.397575,0.628844 -0.582911,0.951363 -0.471362,0.925411 -0.869307,1.886492 -1.190108,2.874243 -0.233634,0.765521 -0.420709,1.544539 -0.560172,2.332675 l -5.089095,0.08578 0.144694,8.582938 5.183146,-0.08733 c 0.09161,0.449895 0.198815,0.896485 0.321427,1.338936 0.320805,0.987764 0.71874,1.948822 1.190108,2.874244 0.32428,0.595525 0.678908,1.17404 1.062468,1.733227 l -3.645256,3.710368 3.032373,2.98328 3.074748,3.021521 3.642672,-3.701583 c 0.485385,0.327894 0.985082,0.634126 1.497583,0.917774 0.92542,0.471367 1.886481,0.869304 2.874243,1.190108 0.535336,0.152608 1.076881,0.282607 1.623157,0.38964 v 5.154208 h 8.583972 v -5.052405 c 0.690172,-0.127486 1.373095,-0.291532 2.04587,-0.491443 0.987769,-0.320807 1.948816,-0.718737 2.874243,-1.190108 0.616385,-0.334263 1.21461,-0.700995 1.792139,-1.098641 l 3.588928,3.414262 5.916435,-6.219259 -3.506763,-3.33623 c 0.310996,-0.46241 0.602381,-0.937763 0.873332,-1.424719 0.471537,-0.925392 0.869658,-1.88648 1.190625,-2.874244 0.193486,-0.654664 0.353043,-1.318936 0.478007,-1.990059 l 4.749064,-0.0801 -0.144694,-8.582421 -4.621424,0.07803 c -0.06461,-0.286789 -0.135604,-0.57213 -0.212907,-0.855762 -0.09578,-0.345044 -0.2009,-0.687459 -0.315226,-1.02681 -0.114384,-0.339171 -0.237943,-0.67521 -0.37052,-1.007691 -0.132484,-0.332595 -0.273965,-0.661569 -0.424263,-0.986503 -0.150278,-0.324803 -0.309336,-0.645505 -0.476974,-0.961698 -0.167738,-0.316317 -0.344029,-0.628057 -0.52865,-0.934827 -0.123721,-0.201381 -0.251045,-0.400551 -0.381889,-0.59738 l 3.219442,-3.276802 -3.033923,-2.985864 -3.073198,-3.018938 -3.230293,3.283004 c -0.08843,-0.05755 -0.177318,-0.1144 -0.266651,-0.170532 -0.306769,-0.18462 -0.618511,-0.360912 -0.934826,-0.52865 -0.316193,-0.167637 -0.636896,-0.326696 -0.961699,-0.476973 -0.324933,-0.150298 -0.653908,-0.29178 -0.986503,-0.424264 -0.33248,-0.132577 -0.66852,-0.256136 -1.00769,-0.37052 -0.339351,-0.114326 -0.681767,-0.219446 -1.026811,-0.315226 -0.344855,-0.09568 -0.692269,-0.182021 -1.041797,-0.258899 -0.06041,-0.01182 -0.120871,-0.02336 -0.181384,-0.03462 v -4.653463 z"
         style="opacity:1;fill:#ffffff;fill-opacity:1;stroke:#000000;stroke-width:1.236;stroke-linejoin:miter;stroke-dasharray:none"
         id="path13" /><circle
         style="opacity:1;fill:#000000;fill-opacity:1;stroke:none;stroke-width:0.132;stroke-linejoin:miter;stroke-dasharray:none"
         id="path14"
         cx="66.145836"
         cy="66.145836"
         r="15.134529" /><g
         id="g4"
         transform="translate(-0.52916667,-0.30306146)"
         style="opacity:1"><g
           id="g2"><ellipse
             style="fill:#ffffff;fill-opacity:1;stroke-width:0.0403184;stroke-linejoin:bevel"
             id="path1"
             cx="61.383335"
             cy="62.49189"
             rx="5.2916665"
             ry="5.3322649" /><circle
             style="fill:#000000;fill-opacity:1;stroke-width:0.132292;stroke-linejoin:bevel"
             id="path2"
             cx="63.771111"
             cy="62.49189"
             r="1.490051" /></g><g
           id="g3"
           transform="matrix(-1,0,0,1,133.35,0)"><ellipse
             style="fill:#ffffff;fill-opacity:1;stroke-width:0.0403184;stroke-linejoin:bevel"
             id="ellipse2"
             cx="61.383335"
             cy="62.49189"
             rx="5.2916665"
             ry="5.3322649" /><circle
             style="fill:#000000;fill-opacity:1;stroke-width:0.132292;stroke-linejoin:bevel"
             id="circle2"
             cx="63.771111"
             cy="62.49189"
             r="1.490051" /></g><path
           sodipodi:type="star"
           style="fill:#efa93a;fill-opacity:1;stroke-width:0.132292;stroke-linejoin:bevel"
           id="path3"
           inkscape:flatsided="false"
           sodipodi:sides="3"
           sodipodi:cx="-16.572273"
           sodipodi:cy="70.717896"
           sodipodi:r1="7.0781002"
           sodipodi:r2="3.5390503"
           sodipodi:arg1="0.52359878"
           sodipodi:arg2="1.5707963"
           inkscape:rounded="0"
           inkscape:randomized="0"
           d="m -10.442459,74.256946 -6.129814,0 -6.129815,0 3.064907,-5.308576 3.064908,-5.308575 3.064907,5.308575 z"
           inkscape:transform-center-y="1.7695291"
           transform="matrix(1,0,0,-1,83.247275,143.08213)" /></g></g></g></svg>
