<?xml version="1.0" encoding="UTF-8" standalone="no"?>
<svg
   version="1.1"
   viewBox="0.00 0.00 857.00 204.00"
   width="857.00"
   height="204.00"
   id="svg46"
   sodipodi:docname="Tor_Vergata_University_logo.svg"
   inkscape:version="1.3 (0e150ed6c4, 2023-07-21)"
   xmlns:inkscape="http://www.inkscape.org/namespaces/inkscape"
   xmlns:sodipodi="http://sodipodi.sourceforge.net/DTD/sodipodi-0.dtd"
   xmlns="http://www.w3.org/2000/svg"
   xmlns:svg="http://www.w3.org/2000/svg">
  <defs
     id="defs46" />
  <sodipodi:namedview
     id="namedview46"
     pagecolor="#ffffff"
     bordercolor="#666666"
     borderopacity="1.0"
     inkscape:showpageshadow="2"
     inkscape:pageopacity="0.0"
     inkscape:pagecheckerboard="0"
     inkscape:deskcolor="#d1d1d1"
     showgrid="false"
     inkscape:zoom="0.34859977"
     inkscape:cx="87.492887"
     inkscape:cy="354.27448"
     inkscape:window-width="1920"
     inkscape:window-height="991"
     inkscape:window-x="-9"
     inkscape:window-y="-9"
     inkscape:window-maximized="1"
     inkscape:current-layer="svg46" />
  <rect
     fill="#007d34"
     x="-3.37"
     y="-2.63"
     transform="translate(4.38,3.12) rotate(0.2)"
     width="6.74"
     height="5.26"
     rx="0.44"
     id="rect1"
     style="fill:#ffffff" />
  <rect
     fill="#007d34"
     x="-3.50"
     y="-2.62"
     transform="translate(18.24,3.13) rotate(0.2)"
     width="7.00"
     height="5.24"
     rx="0.42"
     id="rect2"
     style="fill:#ffffff" />
  <rect
     fill="#007d34"
     x="-3.50"
     y="-2.62"
     transform="translate(32.24,3.14) rotate(0.2)"
     width="7.00"
     height="5.24"
     rx="0.40"
     id="rect3"
     style="fill:#ffffff" />
  <rect
     fill="#007d34"
     x="-3.50"
     y="-2.63"
     transform="translate(46.24,3.13) rotate(0.1)"
     width="7.00"
     height="5.26"
     rx="0.39"
     id="rect4"
     style="fill:#ffffff" />
  <rect
     fill="#007d34"
     x="-3.50"
     y="-2.63"
     transform="translate(60.25,3.12) rotate(0.1)"
     width="7.00"
     height="5.26"
     rx="0.39"
     id="rect5"
     style="fill:#ffffff" />
  <path
     fill="#007d34"
     d="   M 149.98 204.00   L 0.53 204.00   L 0.54 158.06   C 0.54 157.63 0.73 157.51 1.11 157.70   C 10.80 162.45 21.03 164.85 31.80 164.89   C 38.53 164.92 45.10 163.97 51.52 162.05   C 77.11 154.42 96.08 133.43 100.94 106.93   C 101.67 102.98 102.02 96.33 102.01 86.99   C 102.00 79.36 102.00 50.62 102.01 0.77   C 102.01 0.62 102.13 0.50 102.27 0.50   L 149.73 0.50   C 149.88 0.50 150.00 0.62 150.00 0.77   L 149.98 204.00   Z"
     id="path5"
     style="fill:#ffffff" />
  <rect
     fill="#007d34"
     x="0.49"
     y="14.25"
     width="63.74"
     height="9.50"
     rx="0.48"
     id="rect6"
     style="fill:#ffffff" />
  <rect
     fill="#007d34"
     x="0.54"
     y="30.04"
     width="63.72"
     height="9.46"
     rx="0.38"
     id="rect7"
     style="fill:#ffffff" />
  <rect
     fill="#007d34"
     x="0.49"
     y="45.76"
     width="63.76"
     height="9.24"
     rx="0.37"
     id="rect8"
     style="fill:#ffffff" />
  <path
     fill="#007d34"
     d="   M 217.15 51.25   C 229.89 51.26 236.83 51.24 237.98 51.20   C 239.17 51.17 240.30 50.48 241.37 49.13   C 241.58 48.87 241.89 48.72 242.23 48.72   L 243.22 48.72   C 243.58 48.72 243.77 48.90 243.79 49.26   L 244.88 66.16   C 244.90 66.43 244.78 66.58 244.51 66.60   L 242.29 66.74   C 242.00 66.76 241.82 66.62 241.76 66.33   C 241.50 65.05 240.93 63.12 240.05 60.54   C 238.84 56.99 236.41 55.17 232.77 55.08   C 229.10 54.99 225.54 54.97 222.08 55.02   C 221.73 55.03 221.55 55.21 221.54 55.57   C 221.49 69.37 221.50 86.34 221.56 106.49   C 221.57 109.49 223.13 111.23 226.25 111.70   C 228.66 112.07 230.21 112.26 230.90 112.29   C 231.22 112.30 231.38 112.46 231.39 112.78   L 231.40 114.74   C 231.41 115.05 231.19 115.22 230.75 115.23   C 230.42 115.24 225.88 115.24 217.13 115.24   C 208.39 115.24 203.85 115.23 203.52 115.22   C 203.08 115.21 202.86 115.05 202.87 114.73   L 202.88 112.77   C 202.89 112.45 203.05 112.29 203.37 112.28   C 204.06 112.26 205.61 112.06 208.02 111.70   C 211.14 111.22 212.71 109.49 212.71 106.49   C 212.78 86.34 212.80 69.37 212.76 55.57   C 212.75 55.21 212.57 55.02 212.22 55.02   C 208.76 54.96 205.20 54.98 201.53 55.07   C 197.89 55.16 195.46 56.98 194.25 60.53   C 193.37 63.11 192.80 65.04 192.53 66.32   C 192.47 66.61 192.30 66.75 192.00 66.73   L 189.78 66.59   C 189.52 66.57 189.39 66.42 189.41 66.15   L 190.51 49.25   C 190.53 48.89 190.72 48.71 191.08 48.71   L 192.07 48.71   C 192.41 48.71 192.72 48.86 192.93 49.12   C 194.01 50.46 195.14 51.16 196.32 51.19   C 197.47 51.23 204.41 51.25 217.15 51.25   Z"
     id="path8"
     style="fill:#ffffff" />
  <path
     fill="#007d34"
     d="   M 766.62 115.26   C 757.88 115.25 753.34 115.24 753.00 115.23   C 752.56 115.22 752.35 115.05 752.35 114.74   L 752.37 112.78   C 752.37 112.46 752.54 112.30 752.86 112.29   C 753.54 112.27 755.09 112.07 757.51 111.71   C 760.63 111.23 762.19 109.50 762.20 106.50   C 762.28 86.35 762.30 69.37 762.27 55.57   C 762.26 55.21 762.08 55.02 761.73 55.02   C 758.27 54.96 754.70 54.98 751.04 55.07   C 747.39 55.15 744.97 56.97 743.75 60.52   C 742.87 63.10 742.30 65.03 742.03 66.31   C 741.97 66.61 741.80 66.74 741.50 66.72   L 739.28 66.58   C 739.02 66.56 738.89 66.41 738.91 66.14   L 740.02 49.24   C 740.04 48.88 740.23 48.70 740.59 48.70   L 741.58 48.70   C 741.91 48.70 742.23 48.85 742.44 49.11   C 743.51 50.46 744.64 51.15 745.83 51.19   C 746.98 51.22 753.92 51.24 766.66 51.25   C 779.40 51.26 786.35 51.25 787.49 51.21   C 788.68 51.18 789.81 50.48 790.89 49.14   C 791.09 48.88 791.41 48.73 791.75 48.73   L 792.74 48.73   C 793.10 48.73 793.29 48.91 793.31 49.27   L 794.39 66.17   C 794.41 66.45 794.29 66.59 794.02 66.61   L 791.80 66.75   C 791.51 66.77 791.33 66.64 791.27 66.34   C 791.01 65.06 790.44 63.13 789.56 60.55   C 788.35 57.00 785.92 55.17 782.28 55.09   C 778.61 54.99 775.05 54.97 771.59 55.02   C 771.24 55.03 771.06 55.21 771.05 55.57   C 771.00 69.38 771.00 86.35 771.05 106.50   C 771.06 109.50 772.62 111.24 775.74 111.72   C 778.15 112.08 779.70 112.28 780.39 112.31   C 780.71 112.31 780.87 112.48 780.88 112.80   L 780.89 114.76   C 780.90 115.07 780.68 115.24 780.24 115.25   C 779.91 115.26 775.37 115.26 766.62 115.26   Z"
     id="path9"
     style="fill:#ffffff" />
  <path
     fill="#007d34"
     d="   M 281.5450 116.8426   C 263.60 114.89 250.69 98.29 252.7011 79.7606   C 254.71 61.23 270.89 47.79 288.8350 49.7374   C 306.78 51.69 319.69 68.29 317.6789 86.8194   C 315.67 105.35 299.49 118.79 281.5450 116.8426   Z   M 263.16 85.27   C 263.56 89.47 264.56 93.63 266.18 97.77   C 269.67 106.72 277.94 113.83 288.00 112.89   C 298.05 111.95 304.86 103.42 306.63 93.99   C 307.45 89.62 307.67 85.34 307.28 81.15   C 306.88 76.96 305.88 72.79 304.26 68.65   C 300.77 59.71 292.50 52.59 282.44 53.53   C 272.39 54.47 265.58 63.00 263.81 72.44   C 262.99 76.80 262.77 81.08 263.16 85.27   Z"
     id="path10"
     style="fill:#ffffff" />
  <path
     fill="#007d34"
     d="   M 668.18 88.58   C 665.11 88.78 662.89 89.36 662.68 92.76   C 662.25 99.63 662.40 106.26 663.13 112.67   C 663.17 112.99 663.03 113.19 662.72 113.27   C 655.35 115.17 649.19 116.30 644.25 116.67   C 627.38 117.93 610.34 109.96 606.05 92.50   C 604.44 85.95 604.59 79.48 606.50 73.09   C 609.39 63.47 615.97 56.67 626.23 52.70   C 632.54 50.25 639.16 49.31 646.07 49.88   C 651.34 50.32 656.34 51.21 661.08 52.55   C 661.41 52.64 661.59 52.86 661.62 53.19   L 663.13 68.07   C 663.14 68.24 663.07 68.34 662.90 68.35   L 660.40 68.61   C 660.24 68.62 660.14 68.55 660.11 68.39   C 658.46 60.86 654.72 56.27 648.90 54.62   C 646.00 53.80 643.29 53.43 640.77 53.52   C 625.27 54.04 616.35 65.05 615.35 79.95   C 614.42 93.65 621.14 108.47 635.30 112.17   C 640.65 113.57 645.71 113.35 650.47 111.50   C 652.62 110.67 653.77 108.91 653.90 106.24   C 654.05 103.17 654.07 99.17 653.95 94.26   C 653.88 91.48 652.65 89.80 650.25 89.22   C 648.93 88.90 645.96 88.43 644.24 88.51   C 643.97 88.52 643.75 88.31 643.75 88.04   L 643.75 85.99   C 643.75 85.66 643.91 85.50 644.24 85.50   L 668.25 85.50   C 668.58 85.50 668.74 85.66 668.74 85.99   L 668.74 87.98   C 668.74 88.30 668.49 88.56 668.18 88.58   Z"
     id="path11"
     style="fill:#ffffff" />
  <path
     fill="#007d34"
     d="   M 694.55 92.45   C 693.58 94.48 691.91 99.34 689.54 107.02   C 689.17 108.25 689.13 109.21 689.44 109.91   C 690.25 111.74 694.11 112.15 695.78 112.25   C 696.09 112.26 696.25 112.43 696.25 112.74   L 696.25 114.76   C 696.25 115.09 696.09 115.25 695.76 115.25   L 675.23 115.25   C 674.90 115.25 674.73 115.08 674.73 114.75   L 674.73 112.75   C 674.73 112.48 674.86 112.32 675.13 112.27   C 676.49 112.02 677.58 111.81 678.39 111.62   C 681.94 110.80 683.71 107.36 685.16 103.68   C 691.47 87.73 698.37 70.26 705.85 51.26   C 705.96 50.97 706.16 50.77 706.45 50.66   L 708.72 49.76   C 709.13 49.60 709.41 49.73 709.56 50.14   C 719.29 77.37 725.75 95.41 728.96 104.28   C 729.61 106.07 730.52 107.75 731.71 109.33   C 733.47 111.66 736.22 112.11 738.79 112.25   C 739.10 112.27 739.26 112.43 739.26 112.74   L 739.26 114.75   C 739.26 115.03 739.04 115.25 738.76 115.25   L 715.24 115.25   C 714.90 115.25 714.73 115.08 714.73 114.74   L 714.73 112.75   C 714.73 112.46 714.87 112.30 715.16 112.25   C 717.09 111.96 718.50 111.67 719.41 111.38   C 721.37 110.74 721.25 109.17 720.69 107.46   C 719.15 102.75 717.36 97.75 715.33 92.46   C 715.22 92.15 714.99 92.00 714.66 92.00   L 695.26 92.00   C 694.93 92.00 694.69 92.15 694.55 92.45   Z   M 696.33 87.01   C 696.26 87.21 696.40 87.42 696.62 87.42   L 713.36 87.57   C 713.57 87.57 713.72 87.36 713.65 87.16   L 705.49 63.64   C 705.39 63.36 705.00 63.36 704.90 63.63   L 696.33 87.01   Z"
     id="path12"
     style="fill:#ffffff" />
  <path
     fill="#007d34"
     d="   M 857.00 112.20   L 857.00 115.22   L 833.96 115.24   C 833.65 115.24 833.50 115.08 833.50 114.77   L 833.50 112.73   C 833.50 112.40 833.66 112.23 833.99 112.21   C 835.45 112.11 839.29 111.75 839.68 109.53   C 839.77 108.99 839.61 108.11 839.19 106.88   C 837.74 102.67 836.03 97.89 834.07 92.53   C 833.95 92.21 833.65 92.00 833.31 92.00   L 813.55 92.00   C 813.36 92.00 813.22 92.09 813.15 92.27   C 811.07 97.87 809.38 102.95 808.09 107.51   C 807.46 109.72 808.23 111.07 810.41 111.57   C 811.96 111.93 813.31 112.14 814.46 112.19   C 814.81 112.21 814.99 112.40 814.99 112.75   L 814.99 114.76   C 814.99 115.09 814.82 115.25 814.49 115.25   L 794.10 115.25   C 793.71 115.25 793.51 115.05 793.51 114.66   L 793.51 112.76   C 793.51 112.33 793.72 112.11 794.15 112.11   C 798.38 112.06 801.45 109.65 803.36 104.87   C 806.63 96.63 813.67 78.78 824.47 51.32   C 824.60 51.00 824.82 50.78 825.15 50.65   L 827.37 49.77   C 827.79 49.60 828.08 49.74 828.23 50.17   C 835.20 69.87 841.91 88.51 848.38 106.08   C 849.84 110.05 852.71 112.09 857.00 112.20   Z   M 815.00 86.99   C 814.92 87.20 815.07 87.42 815.29 87.42   L 832.00 87.57   C 832.23 87.57 832.38 87.35 832.31 87.14   L 824.16 63.67   C 824.06 63.39 823.66 63.38 823.55 63.67   L 815.00 86.99   Z"
     id="path13"
     style="fill:#ffffff" />
  <path
     fill="#007d34"
     d="   M 343.75 88.11   C 343.68 95.17 343.70 101.44 343.81 106.93   C 343.85 108.65 344.61 110.05 346.08 111.14   C 346.85 111.71 348.81 112.06 351.96 112.20   C 352.30 112.21 352.47 112.39 352.47 112.73   L 352.47 114.76   C 352.47 115.09 352.31 115.26 351.98 115.26   L 326.80 115.26   C 326.49 115.26 326.34 115.11 326.34 114.80   L 326.34 112.69   C 326.34 112.45 326.46 112.32 326.70 112.30   C 330.59 112.01 335.15 111.92 335.17 106.74   C 335.26 89.46 335.27 73.72 335.18 59.53   C 335.15 54.68 331.02 54.62 327.27 54.25   C 326.98 54.22 326.84 54.07 326.84 53.78   L 326.84 51.71   C 326.84 51.41 326.99 51.26 327.29 51.26   C 328.61 51.26 337.43 51.26 353.76 51.26   C 364.11 51.26 373.96 55.81 373.67 67.70   C 373.48 75.31 369.54 80.78 361.87 84.10   C 361.57 84.23 361.44 84.59 361.60 84.88   C 366.48 93.87 371.92 101.84 377.92 108.81   C 379.53 110.67 381.66 112.10 384.31 113.10   C 384.62 113.21 384.78 113.44 384.78 113.77   L 384.78 115.43   C 384.78 115.79 384.60 115.98 384.24 115.99   C 377.91 116.22 373.11 115.05 369.82 112.46   C 367.72 110.80 365.33 107.87 362.66 103.67   C 359.90 99.33 357.19 94.96 354.54 90.55   C 352.55 87.24 348.64 87.40 344.28 87.56   C 343.93 87.57 343.75 87.76 343.75 88.11   Z   M 350.82 83.81   C 360.97 83.15 365.26 75.54 364.04 66.26   C 362.83 57.10 354.40 53.28 346.11 55.17   C 344.57 55.52 343.79 56.46 343.76 58.01   C 343.71 61.70 343.71 70.16 343.78 83.39   C 343.78 83.77 343.97 83.97 344.36 83.99   C 345.70 84.06 347.85 84.00 350.82 83.81   Z"
     id="path14"
     style="fill:#ffffff" />
  <path
     fill="#007d34"
     d="   M 446.78 101.58   C 453.65 84.53 458.88 70.58 462.47 59.71   C 463.25 57.34 462.63 55.85 460.62 55.24   C 459.19 54.80 457.59 54.50 455.82 54.34   C 455.45 54.31 455.26 54.10 455.26 53.73   L 455.26 51.74   C 455.26 51.41 455.42 51.25 455.75 51.25   L 477.01 51.25   C 477.33 51.25 477.49 51.41 477.49 51.73   L 477.49 53.77   C 477.49 54.14 477.31 54.33 476.94 54.35   C 470.30 54.76 468.65 58.19 466.21 64.00   C 459.50 79.89 452.62 97.17 445.57 115.82   C 445.46 116.11 445.26 116.25 444.96 116.25   L 442.74 116.25   C 442.37 116.25 442.11 116.07 441.98 115.72   C 435.40 97.77 428.36 79.33 420.87 60.42   C 419.26 56.36 416.45 54.38 412.45 54.48   C 412.06 54.49 411.73 54.17 411.73 53.77   L 411.73 51.87   C 411.73 51.53 412.01 51.25 412.35 51.25   L 435.49 51.25   C 435.82 51.25 435.99 51.41 435.99 51.74   L 435.99 53.72   C 435.99 54.10 435.80 54.30 435.42 54.32   C 434.23 54.40 432.92 54.61 431.49 54.96   C 429.60 55.42 428.98 56.55 429.65 58.35   C 436.24 76.18 441.73 90.59 446.12 101.58   C 446.34 102.13 446.56 102.13 446.78 101.58   Z"
     id="path15"
     style="fill:#ffffff" />
  <path
     fill="#007d34"
     d="   M 502.21 84.76   C 501.93 89.89 501.87 95.51 502.02 101.64   C 502.11 104.99 502.20 106.88 502.31 107.31   C 502.74 108.96 503.68 110.11 505.12 110.78   C 506.01 111.19 507.38 111.47 509.21 111.60   C 513.44 111.90 517.38 111.80 521.02 111.30   C 526.96 110.49 529.71 104.49 531.39 99.52   C 531.49 99.21 531.81 99.03 532.12 99.10   L 534.49 99.62   C 534.68 99.66 534.76 99.78 534.72 99.97   L 531.51 114.65   C 531.42 115.05 531.18 115.25 530.77 115.25   L 484.11 115.25   C 483.86 115.25 483.74 115.12 483.74 114.87   L 483.74 112.72   C 483.74 112.42 483.89 112.26 484.19 112.25   C 486.59 112.14 491.47 111.97 492.77 108.98   C 493.25 107.89 493.17 106.57 493.37 105.25   C 493.44 104.78 493.48 104.27 493.48 103.72   C 493.51 84.55 493.50 70.97 493.45 63.00   C 493.44 60.84 493.22 58.99 492.80 57.44   C 492.04 54.65 487.99 54.45 485.46 54.30   C 485.13 54.28 484.97 54.10 484.98 53.76   L 485.04 51.72   C 485.05 51.41 485.21 51.25 485.52 51.25   L 528.45 51.25   C 528.75 51.25 528.91 51.40 528.92 51.70   L 529.79 65.07   C 529.82 65.54 529.60 65.79 529.13 65.82   L 527.18 65.95   C 526.87 65.97 526.69 65.83 526.62 65.52   C 526.47 64.79 526.03 63.33 525.30 61.15   C 523.90 56.98 521.09 54.92 516.87 54.97   C 512.39 55.02 507.91 55.04 503.43 55.04   C 502.64 55.04 502.00 55.68 502.00 56.47   L 502.00 79.47   C 502.00 79.80 502.17 79.97 502.50 79.98   C 508.90 80.05 513.44 80.02 516.12 79.88   C 519.95 79.69 521.17 76.46 521.46 73.19   C 521.49 72.88 521.66 72.73 521.97 72.73   L 524.27 72.77   C 524.59 72.78 524.75 72.94 524.75 73.26   L 524.75 91.25   C 524.75 91.59 524.58 91.76 524.24 91.76   L 522.02 91.74   C 521.67 91.73 521.47 91.56 521.42 91.21   C 520.90 87.69 520.10 84.54 515.94 84.31   C 514.69 84.24 510.29 84.23 502.74 84.26   C 502.41 84.26 502.23 84.43 502.21 84.76   Z"
     id="path16"
     style="fill:#ffffff" />
  <path
     fill="#007d34"
     d="   M 560.08 87.55   C 559.72 87.56 559.55 87.74 559.55 88.10   C 559.48 95.15 559.50 101.42 559.61 106.91   C 559.65 108.63 560.40 110.03 561.87 111.12   C 562.65 111.68 564.61 112.04 567.75 112.18   C 568.09 112.19 568.26 112.37 568.26 112.71   L 568.26 114.74   C 568.26 115.07 568.10 115.24 567.77 115.24   L 542.60 115.24   C 542.29 115.24 542.14 115.08 542.14 114.78   L 542.14 112.67   C 542.14 112.43 542.26 112.30 542.50 112.28   C 546.39 111.99 550.95 111.90 550.97 106.72   C 551.06 89.44 551.07 73.71 550.98 59.53   C 550.95 54.68 546.82 54.62 543.07 54.25   C 542.79 54.22 542.64 54.06 542.64 53.78   L 542.64 51.71   C 542.64 51.41 542.79 51.26 543.09 51.26   C 544.41 51.26 553.23 51.26 569.55 51.26   C 579.90 51.26 589.75 55.81 589.46 67.69   C 589.26 75.31 585.33 80.77 577.66 84.09   C 577.36 84.22 577.23 84.58 577.39 84.87   C 582.27 93.85 587.71 101.83 593.70 108.79   C 595.31 110.65 597.44 112.08 600.09 113.08   C 600.40 113.19 600.56 113.42 600.56 113.75   L 600.56 115.41   C 600.56 115.77 600.38 115.95 600.02 115.97   C 593.70 116.20 588.89 115.02 585.61 112.44   C 583.51 110.78 581.12 107.85 578.45 103.65   C 575.69 99.31 572.98 94.94 570.33 90.54   C 568.34 87.23 564.43 87.39 560.08 87.55   Z   M 566.58 83.84   C 576.74 83.20 581.05 75.59 579.85 66.29   C 578.65 57.12 570.22 53.28 561.92 55.15   C 560.38 55.50 559.59 56.44 559.56 57.99   C 559.50 61.69 559.49 70.16 559.53 83.40   C 559.53 83.78 559.72 83.98 560.11 84.00   C 561.45 84.08 563.60 84.02 566.58 83.84   Z"
     id="path17"
     style="fill:#ffffff" />
  <rect
     fill="#007d34"
     x="0.50"
     y="61.50"
     width="63.74"
     height="9.50"
     rx="0.43"
     id="rect17"
     style="fill:#ffffff" />
  <rect
     fill="#007d34"
     x="0.49"
     y="77.25"
     width="63.74"
     height="9.50"
     rx="0.48"
     id="rect18"
     style="fill:#ffffff" />
  <rect
     fill="#007d34"
     x="0.51"
     y="93.00"
     width="63.74"
     height="9.50"
     rx="0.48"
     id="rect19"
     style="fill:#ffffff" />
  <rect
     fill="#007d34"
     x="0.46"
     y="108.75"
     width="63.76"
     height="9.50"
     rx="0.62"
     id="rect20"
     style="fill:#ffffff" />
  <path
     fill="#007d34"
     d="   M 406.94 137.76   C 406.70 138.27 404.95 137.97 401.70 136.88   C 401.37 136.77 401.19 136.54 401.14 136.19   C 401.10 135.82 401.16 135.46 401.33 135.10   C 401.50 134.74 401.74 134.46 402.06 134.26   C 402.35 134.08 402.65 134.08 402.94 134.26   C 405.84 136.09 407.18 137.25 406.94 137.76   Z"
     id="path20"
     style="fill:#ffffff" />
  <path
     fill="#007d34"
     d="   M 382.06 138.75   C 385.52 138.74 387.65 139.00 388.87 138.36   C 389.24 138.17 389.47 138.28 389.54 138.69   C 389.86 140.54 389.92 142.06 389.71 143.26   C 389.67 143.52 389.39 143.69 389.10 143.63   C 389.01 143.61 388.91 143.55 388.80 143.46   C 388.65 143.33 388.57 143.21 388.56 143.08   C 388.27 140.93 386.92 139.98 384.51 140.23   C 384.18 140.26 384.02 140.44 384.01 140.77   C 383.91 144.85 384.13 148.89 383.94 152.80   C 383.88 154.11 384.55 154.87 385.95 155.08   C 386.21 155.12 386.44 155.29 386.56 155.53   C 386.62 155.66 386.65 155.78 386.64 155.88   C 386.62 156.04 386.47 156.14 386.19 156.17   C 385.69 156.22 384.34 156.24 382.12 156.25   C 379.89 156.26 378.54 156.24 378.04 156.19   C 377.76 156.16 377.61 156.07 377.59 155.91   C 377.58 155.81 377.61 155.69 377.67 155.56   C 377.78 155.31 378.01 155.14 378.27 155.10   C 379.67 154.88 380.34 154.12 380.27 152.81   C 380.06 148.90 380.25 144.86 380.13 140.78   C 380.12 140.45 379.95 140.28 379.63 140.24   C 377.21 140.01 375.87 140.97 375.59 143.12   C 375.58 143.24 375.50 143.37 375.36 143.50   C 375.25 143.59 375.15 143.65 375.06 143.67   C 374.77 143.73 374.49 143.57 374.44 143.30   C 374.23 142.11 374.28 140.58 374.59 138.73   C 374.66 138.32 374.88 138.21 375.26 138.40   C 376.48 139.03 378.61 138.76 382.06 138.75   Z"
     id="path21"
     style="fill:#ffffff" />
  <path
     fill="#007d34"
     d="   M 595.90 156.25   C 593.68 156.25 592.33 156.23 591.83 156.19   C 591.55 156.16 591.40 156.06 591.38 155.90   C 591.37 155.80 591.40 155.69 591.46 155.55   C 591.57 155.31 591.80 155.14 592.06 155.10   C 593.46 154.88 594.13 154.11 594.06 152.81   C 593.85 148.90 594.04 144.86 593.92 140.78   C 593.91 140.46 593.74 140.28 593.41 140.25   C 591.00 140.01 589.66 140.97 589.38 143.12   C 589.37 143.25 589.29 143.37 589.14 143.50   C 589.04 143.59 588.94 143.65 588.85 143.67   C 588.56 143.73 588.28 143.57 588.23 143.31   C 588.02 142.11 588.07 140.58 588.38 138.74   C 588.45 138.32 588.67 138.21 589.05 138.40   C 590.27 139.03 592.39 138.76 595.85 138.75   C 599.31 138.74 601.43 139.00 602.65 138.36   C 603.03 138.17 603.25 138.28 603.32 138.69   C 603.64 140.54 603.70 142.06 603.49 143.26   C 603.45 143.52 603.17 143.69 602.89 143.63   C 602.79 143.61 602.69 143.55 602.59 143.46   C 602.44 143.33 602.36 143.21 602.35 143.08   C 602.06 140.93 600.71 139.98 598.30 140.23   C 597.97 140.26 597.80 140.44 597.80 140.77   C 597.70 144.85 597.92 148.89 597.73 152.80   C 597.67 154.10 598.34 154.86 599.74 155.08   C 600.00 155.11 600.23 155.28 600.35 155.53   C 600.41 155.66 600.43 155.78 600.43 155.88   C 600.41 156.04 600.26 156.13 599.98 156.16   C 599.48 156.21 598.12 156.24 595.90 156.25   Z"
     id="path22"
     style="fill:#ffffff" />
  <path
     fill="#007d34"
     d="   M 342.11 139.77   C 339.63 140.18 338.91 142.97 341.23 144.47   C 342.44 145.26 345.65 146.69 346.73 148.21   C 347.87 149.81 348.05 151.46 347.27 153.17   C 345.51 157.02 340.75 157.11 337.18 155.81   C 336.79 155.67 336.58 155.39 336.53 154.98   L 336.14 151.08   C 336.12 150.92 336.22 150.76 336.38 150.71   L 336.63 150.63   C 336.95 150.52 337.16 150.61 337.27 150.88   C 337.66 151.91 338.22 152.85 338.94 153.72   C 340.22 155.27 342.75 156.14 343.84 153.86   C 345.72 149.94 338.42 148.76 337.05 145.93   C 335.80 143.36 336.80 140.20 339.52 139.08   C 341.45 138.29 343.59 138.26 345.93 139.00   C 346.24 139.10 346.46 139.36 346.51 139.68   C 346.72 141.09 346.82 141.91 346.81 142.13   C 346.80 143.78 346.37 143.92 345.51 142.55   L 344.45 140.85   C 343.95 140.04 343.02 139.62 342.11 139.77   Z"
     id="path23"
     style="fill:#ffffff" />
  <path
     fill="#007d34"
     d="   M 401.01 154.52   L 402.10 155.21   C 403.17 155.89 403.07 156.23 401.78 156.23   L 397.51 156.23   C 395.51 156.23 395.41 155.78 397.20 154.87   C 398.14 154.40 398.71 153.61 399.11 152.61   C 400.46 149.22 402.08 145.14 403.95 140.38   C 404.96 137.81 405.94 137.83 406.89 140.42   C 408.78 145.61 410.36 149.88 411.64 153.25   C 412.02 154.25 412.68 154.59 413.59 154.92   C 413.84 155.01 414.01 155.25 414.00 155.51   C 413.99 155.65 413.99 155.76 413.99 155.83   C 413.97 156.11 413.82 156.25 413.54 156.25   L 407.09 156.25   C 405.78 156.25 405.67 155.87 406.74 155.12   L 407.41 154.65   C 407.75 154.41 407.84 154.10 407.69 153.71   L 406.60 150.93   C 406.48 150.64 406.26 150.49 405.95 150.49   L 402.42 150.49   C 402.08 150.49 401.85 150.65 401.72 150.96   L 400.69 153.53   C 400.54 153.89 400.68 154.31 401.01 154.52   Z   M 404.11 149.01   C 404.57 149.02 405.00 148.99 405.42 148.92   C 405.77 148.87 405.89 148.67 405.78 148.34   C 404.89 145.59 404.37 144.21 404.21 144.21   C 404.00 144.21 403.43 145.57 402.47 148.30   C 402.36 148.63 402.47 148.83 402.82 148.89   C 403.23 148.97 403.67 149.01 404.11 149.01   Z"
     id="path24"
     style="fill:#ffffff" />
  <path
     fill="#007d34"
     d="   M 498.88 149.27   L 497.06 148.87   C 496.85 148.82 496.70 148.65 496.68 148.44   L 496.63 148.01   C 496.62 147.84 496.69 147.76 496.86 147.76   L 504.21 147.76   C 505.18 147.76 505.29 148.07 504.54 148.69   L 503.67 149.42   C 503.42 149.62 503.30 149.88 503.30 150.20   L 503.30 155.16   C 503.30 155.43 503.17 155.60 502.92 155.67   C 499.39 156.74 496.13 156.82 493.14 155.91   C 489.09 154.67 486.89 151.02 487.28 146.77   C 487.66 142.58 490.17 139.91 494.81 138.76   C 496.92 138.24 499.45 138.34 502.40 139.05   C 502.78 139.14 502.99 139.38 503.03 139.77   L 503.40 143.47   C 503.45 143.89 503.26 144.08 502.84 144.03   C 502.72 144.02 502.60 143.99 502.47 143.94   C 502.26 143.86 502.13 143.72 502.06 143.51   C 501.30 141.13 499.79 139.91 497.53 139.85   C 494.88 139.77 493.03 141.25 491.99 144.28   C 490.46 148.69 492.38 155.40 498.19 155.21   C 498.91 155.19 499.48 154.60 499.48 153.88   L 499.48 150.01   C 499.48 149.60 499.28 149.36 498.88 149.27   Z"
     id="path25"
     style="fill:#ffffff" />
  <path
     fill="#007d34"
     d="   M 572.54 144.44   C 573.75 145.23 576.96 146.65 578.05 148.16   C 579.19 149.76 579.37 151.41 578.60 153.12   C 576.85 156.97 572.10 157.07 568.53 155.78   C 568.14 155.65 567.93 155.37 567.88 154.96   L 567.48 151.06   C 567.46 150.90 567.56 150.74 567.71 150.69   L 567.96 150.61   C 568.28 150.50 568.50 150.59 568.60 150.86   C 569.00 151.88 569.56 152.83 570.28 153.69   C 571.56 155.24 574.09 156.10 575.18 153.82   C 577.04 149.89 569.75 148.74 568.37 145.91   C 567.11 143.35 568.10 140.19 570.82 139.06   C 572.75 138.27 574.88 138.23 577.22 138.97   C 577.53 139.06 577.75 139.32 577.80 139.64   C 578.01 141.05 578.11 141.87 578.11 142.09   C 578.11 143.74 577.67 143.88 576.81 142.51   L 575.75 140.82   C 575.24 140.02 574.32 139.59 573.41 139.75   C 570.93 140.16 570.22 142.95 572.54 144.44   Z"
     id="path26"
     style="fill:#ffffff" />
  <path
     fill="#007d34"
     d="   M 800.07 147.49   C 800.07 152.55 795.97 156.65 790.91 156.65   C 785.85 156.65 781.75 152.55 781.75 147.49   C 781.75 142.43 785.85 138.33 790.91 138.33   C 795.97 138.33 800.07 142.43 800.07 147.49   Z   M 791.3761 155.2271   C 794.04 155.07 796.01 151.48 795.7620 147.2114   C 795.52 142.94 793.15 139.60 790.4839 139.7529   C 787.82 139.91 785.85 143.50 786.0980 147.7686   C 786.34 152.04 788.71 155.38 791.3761 155.2271   Z"
     id="path27"
     style="fill:#ffffff" />
  <path
     fill="#007d34"
     d="   M 857.00 154.95   L 857.00 156.17   L 849.95 156.13   C 849.62 156.13 849.47 155.71 849.72 155.50   L 851.04 154.40   C 851.25 154.23 851.30 154.01 851.20 153.76   L 850.15 151.08   C 850.00 150.69 849.71 150.49 849.29 150.49   L 845.72 150.49   C 845.48 150.49 845.31 150.60 845.22 150.83   L 844.11 153.60   C 843.98 153.93 844.04 154.23 844.30 154.48   C 844.43 154.61 844.71 154.75 845.13 154.90   C 845.47 155.03 845.68 155.16 845.76 155.30   C 845.84 155.44 845.87 155.59 845.85 155.74   C 845.79 156.07 845.59 156.24 845.26 156.24   L 840.00 156.24   C 839.63 156.24 839.45 155.79 839.71 155.53   C 840.16 155.09 840.74 154.72 841.46 154.41   C 841.74 154.29 841.96 154.06 842.08 153.78   L 847.56 140.11   C 848.51 137.74 849.42 137.76 850.27 140.16   C 851.60 143.91 853.13 148.14 854.87 152.83   C 855.24 153.84 855.95 154.55 857.00 154.95   Z   M 847.69 148.99   C 848.13 148.99 848.56 148.95 848.97 148.87   C 849.32 148.81 849.43 148.61 849.31 148.29   C 848.37 145.58 847.79 144.23 847.60 144.23   C 847.43 144.23 846.92 145.60 846.04 148.33   C 845.93 148.66 846.05 148.85 846.39 148.91   C 846.81 148.97 847.24 149.00 847.69 148.99   Z"
     id="path28"
     style="fill:#ffffff" />
  <path
     fill="#007d34"
     d="   M 205.64 141.26   C 205.39 143.40 205.25 145.43 205.24 147.34   C 205.21 150.29 204.97 152.22 204.51 153.11   C 203.12 155.82 200.58 156.91 196.89 156.40   C 193.44 155.92 191.67 153.78 191.56 149.99   C 191.50 147.84 191.47 144.96 191.48 141.37   C 191.48 141.02 191.34 140.75 191.05 140.54   C 190.66 140.25 190.19 140.02 189.66 139.85   C 189.43 139.78 189.29 139.68 189.22 139.56   C 189.11 139.38 189.06 139.25 189.07 139.18   C 189.10 138.90 189.24 138.76 189.48 138.76   L 197.16 138.77   C 197.53 138.77 197.69 139.23 197.41 139.46   L 195.70 140.89   C 195.51 141.05 195.39 141.25 195.36 141.50   C 195.20 142.80 195.18 145.21 195.30 148.74   C 195.37 150.77 195.89 153.50 197.98 154.21   C 201.32 155.33 203.29 153.06 203.68 149.95   C 203.83 148.76 203.84 146.44 203.69 142.99   C 203.62 141.24 202.85 140.20 201.38 139.87   C 201.17 139.82 201.02 139.70 200.95 139.49   C 200.90 139.36 200.90 139.24 200.93 139.13   C 201.00 138.88 201.17 138.75 201.43 138.75   L 207.41 138.75   C 207.67 138.75 207.80 138.88 207.80 139.14   L 207.80 139.53   C 207.80 139.65 207.74 139.74 207.63 139.79   L 206.19 140.49   C 205.86 140.65 205.68 140.91 205.64 141.26   Z"
     id="path29"
     style="fill:#ffffff" />
  <path
     fill="#007d34"
     d="   M 220.42 144.39   C 220.24 145.81 220.19 148.13 220.27 151.34   C 220.27 151.40 220.26 151.84 220.25 152.66   C 220.23 154.09 220.97 154.88 222.48 155.03   C 222.83 155.06 223.00 155.26 223.00 155.61   L 223.00 155.90   C 223.00 156.11 222.90 156.21 222.70 156.22   C 220.52 156.29 218.71 156.29 217.28 156.21   C 215.59 156.12 215.53 155.73 217.09 155.02   C 217.27 154.94 217.55 154.73 217.92 154.38   C 218.17 154.15 218.31 153.87 218.35 153.53   C 218.80 149.78 218.89 146.03 218.62 142.28   C 218.52 140.93 217.57 140.28 216.38 140.00   C 216.11 139.94 215.94 139.68 215.97 139.41   C 215.98 139.37 215.99 139.28 216.01 139.14   C 216.04 138.87 216.20 138.74 216.47 138.74   L 220.71 138.74   C 220.98 138.74 221.24 138.86 221.41 139.06   L 230.49 149.96   C 230.68 150.19 231.06 150.05 231.05 149.75   L 230.75 141.73   C 230.73 141.26 230.54 140.88 230.18 140.59   C 229.83 140.31 229.25 140.10 228.42 139.97   C 228.15 139.93 228.02 139.77 228.02 139.50   L 228.02 139.22   C 228.02 138.91 228.17 138.76 228.48 138.76   L 234.47 138.76   C 234.65 138.76 234.81 138.87 234.87 139.04   C 234.98 139.35 234.86 139.60 234.52 139.77   C 234.50 139.78 234.48 139.79 234.45 139.80   C 233.16 140.19 232.52 141.09 232.52 142.50   C 232.51 148.67 232.51 152.76 232.50 154.75   C 232.49 157.12 231.72 157.40 230.21 155.58   L 220.79 144.28   C 220.58 144.03 220.46 144.07 220.42 144.39   Z"
     id="path30"
     style="fill:#ffffff" />
  <path
     fill="#007d34"
     d="   M 247.83 138.76   C 249.66 138.76 250.87 138.78 251.45 138.82   C 252.21 138.87 252.31 139.15 251.73 139.65   C 251.46 139.89 251.02 140.14 250.42 140.41   C 250.08 140.57 249.89 140.83 249.85 141.19   C 249.76 141.95 249.71 144.06 249.72 147.50   C 249.72 150.95 249.77 153.05 249.86 153.81   C 249.90 154.18 250.09 154.43 250.43 154.59   C 251.03 154.86 251.47 155.11 251.74 155.34   C 252.32 155.85 252.22 156.13 251.46 156.18   C 250.88 156.22 249.67 156.24 247.84 156.24   C 246.01 156.25 244.81 156.23 244.23 156.19   C 243.46 156.14 243.37 155.86 243.94 155.35   C 244.21 155.12 244.65 154.86 245.25 154.59   C 245.59 154.44 245.78 154.18 245.82 153.82   C 245.91 153.05 245.96 150.95 245.96 147.50   C 245.95 144.06 245.91 141.96 245.81 141.19   C 245.77 140.83 245.58 140.57 245.24 140.42   C 244.64 140.15 244.20 139.89 243.93 139.66   C 243.35 139.15 243.45 138.88 244.21 138.82   C 244.79 138.78 246.00 138.76 247.83 138.76   Z"
     id="path31"
     style="fill:#ffffff" />
  <path
     fill="#007d34"
     d="   M 271.17 150.45   L 274.75 141.51   C 274.90 141.16 274.80 140.88 274.47 140.69   C 273.83 140.32 273.40 140.08 273.18 139.95   C 272.83 139.76 272.65 139.54 272.63 139.31   C 272.60 138.94 272.77 138.75 273.14 138.75   L 278.60 138.75   C 278.80 138.75 278.97 138.92 278.97 139.12   L 278.97 139.53   C 278.97 139.85 278.74 140.11 278.43 140.16   C 277.56 140.29 276.98 140.66 276.71 141.25   C 275.05 144.87 273.04 149.85 270.68 156.20   C 270.59 156.43 270.39 156.60 270.14 156.66   C 269.47 156.81 268.94 156.36 268.56 155.33   C 266.60 149.93 264.78 145.28 263.10 141.37   C 262.97 141.08 262.78 140.85 262.51 140.68   L 261.45 140.02   C 260.10 139.17 260.22 138.75 261.81 138.75   L 268.51 138.75   C 268.83 138.75 268.99 138.91 268.99 139.23   L 268.99 139.50   C 268.99 139.76 268.87 139.94 268.63 140.03   L 267.48 140.48   C 267.16 140.61 267.06 140.83 267.18 141.15   L 270.84 150.45   C 270.95 150.73 271.06 150.73 271.17 150.45   Z"
     id="path32"
     style="fill:#ffffff" />
  <path
     fill="#007d34"
     d="   M 293.76 140.94   L 293.76 145.80   C 293.76 146.13 293.92 146.34 294.24 146.42   C 296.24 146.92 297.66 146.35 298.49 144.70   C 298.74 144.20 298.97 144.21 299.16 144.73   C 299.45 145.53 299.53 147.13 299.40 149.54   C 299.38 149.83 299.13 150.04 298.85 149.99   C 298.26 149.89 297.88 149.46 297.73 148.69   C 297.65 148.29 297.30 148.01 296.89 148.01   L 294.27 148.01   C 293.95 148.01 293.79 148.17 293.79 148.48   L 293.79 153.60   C 293.79 153.97 294.03 154.30 294.38 154.42   C 297.52 155.50 299.66 154.63 300.79 151.80   C 300.90 151.53 301.10 151.36 301.39 151.31   C 301.49 151.29 301.61 151.31 301.76 151.38   C 302.05 151.51 302.17 151.73 302.10 152.05   L 301.28 155.80   C 301.21 156.10 301.02 156.25 300.71 156.25   L 288.79 156.25   C 286.80 156.25 286.70 155.82 288.50 154.96   L 289.57 154.46   C 289.87 154.31 290.02 154.07 290.02 153.74   L 290.02 141.29   C 290.02 140.96 289.88 140.70 289.60 140.51   C 289.15 140.22 288.74 140.04 288.36 139.98   C 288.06 139.93 287.91 139.76 287.91 139.46   L 287.91 139.08   C 287.91 138.85 288.02 138.74 288.25 138.74   L 299.99 138.74   C 300.30 138.74 300.47 138.89 300.50 139.20   L 300.82 142.36   C 300.85 142.72 300.70 142.97 300.37 143.12   C 300.26 143.17 300.13 143.18 299.98 143.16   C 299.71 143.11 299.53 142.95 299.46 142.68   C 299.16 141.66 298.72 140.65 297.59 140.41   C 296.68 140.21 295.60 140.17 294.36 140.29   C 293.96 140.33 293.76 140.55 293.76 140.94   Z"
     id="path33"
     style="fill:#ffffff" />
  <path
     fill="#007d34"
     d="   M 317.27 148.76   C 316.97 148.68 316.82 148.79 316.82 149.10   L 316.82 153.82   C 316.82 154.13 317.01 154.42 317.31 154.53   L 318.54 155.03   C 318.78 155.12 318.92 155.29 318.97 155.54   C 318.99 155.67 318.98 155.80 318.95 155.92   C 318.87 156.15 318.71 156.26 318.47 156.26   L 311.11 156.26   C 310.80 156.26 310.60 155.94 310.72 155.66   C 310.79 155.50 310.84 155.39 310.89 155.32   C 310.96 155.22 311.09 155.14 311.27 155.07   C 311.71 154.90 312.14 154.71 312.55 154.48   C 312.84 154.31 312.99 154.06 313.00 153.73   C 313.09 146.96 313.10 142.88 313.04 141.50   C 313.01 140.71 312.46 140.21 311.39 140.00   C 311.12 139.95 310.97 139.79 310.94 139.52   C 310.93 139.45 310.93 139.35 310.96 139.22   C 311.01 138.93 311.19 138.78 311.48 138.77   C 316.50 138.58 320.09 138.77 322.25 139.34   C 323.60 139.69 324.45 140.62 324.82 142.12   C 325.42 144.57 324.64 146.35 322.49 147.46   C 322.07 147.67 321.97 147.99 322.18 148.41   C 323.79 151.56 325.48 153.90 327.24 155.44   C 327.85 155.97 327.75 156.23 326.94 156.23   L 324.41 156.23   C 323.22 156.23 322.12 155.63 321.47 154.64   C 320.44 153.05 319.49 151.41 318.63 149.74   C 318.53 149.55 318.34 149.36 318.07 149.17   C 317.80 148.98 317.54 148.84 317.27 148.76   Z   M 316.81 140.92   L 316.71 146.72   C 316.70 147.15 317.04 147.50 317.47 147.51   L 317.85 147.51   C 319.56 147.54 320.98 146.11 321.01 144.31   L 321.03 143.49   C 321.06 141.69 319.69 140.20 317.97 140.17   L 317.59 140.17   C 317.17 140.16 316.82 140.50 316.81 140.92   Z"
     id="path34"
     style="fill:#ffffff" />
  <path
     fill="#007d34"
     d="   M 358.97 147.50   C 358.96 144.06 358.91 141.95 358.81 141.19   C 358.77 140.83 358.58 140.57 358.24 140.42   C 357.64 140.14 357.20 139.89 356.92 139.66   C 356.35 139.15 356.44 138.87 357.21 138.82   C 357.79 138.78 358.99 138.76 360.83 138.75   C 362.66 138.75 363.86 138.77 364.44 138.80   C 365.21 138.85 365.30 139.13 364.73 139.64   C 364.46 139.87 364.02 140.13 363.42 140.40   C 363.08 140.56 362.89 140.82 362.85 141.18   C 362.76 141.94 362.72 144.05 362.73 147.49   C 362.74 150.94 362.79 153.04 362.88 153.81   C 362.92 154.17 363.12 154.43 363.46 154.58   C 364.06 154.85 364.49 155.10 364.77 155.34   C 365.34 155.84 365.25 156.12 364.48 156.18   C 363.90 156.22 362.70 156.24 360.87 156.24   C 359.04 156.25 357.83 156.23 357.25 156.19   C 356.48 156.14 356.39 155.86 356.96 155.36   C 357.23 155.12 357.67 154.87 358.27 154.59   C 358.61 154.44 358.80 154.18 358.84 153.82   C 358.93 153.05 358.97 150.95 358.97 147.50   Z"
     id="path35"
     style="fill:#ffffff" />
  <path
     fill="#007d34"
     d="   M 438.28 154.50   C 438.61 154.33 438.78 154.06 438.78 153.69   L 438.77 141.20   C 438.77 140.94 438.64 140.70 438.41 140.57   L 436.88 139.65   C 436.13 139.20 436.14 138.94 436.90 138.89   C 441.02 138.62 444.37 138.65 446.96 138.97   C 451.79 139.57 454.98 142.46 454.70 147.26   C 454.14 156.70 444.43 156.62 437.05 156.20   C 435.77 156.13 435.70 155.80 436.85 155.22   L 438.28 154.50   Z   M 442.45 141.78   L 442.55 153.14   C 442.56 154.05 443.30 154.78 444.20 154.77   L 444.41 154.77   C 447.79 154.74 450.50 151.76 450.47 148.12   L 450.45 146.68   C 450.42 143.03 447.66 140.10 444.29 140.13   L 444.08 140.13   C 443.17 140.14 442.44 140.88 442.45 141.78   Z"
     id="path36"
     style="fill:#ffffff" />
  <path
     fill="#007d34"
     d="   M 470.57 140.31   C 470.17 140.35 469.97 140.57 469.97 140.96   L 469.96 145.81   C 469.96 146.14 470.12 146.35 470.44 146.43   C 472.44 146.93 473.85 146.36 474.69 144.72   C 474.94 144.22 475.16 144.23 475.36 144.75   C 475.65 145.55 475.72 147.15 475.59 149.55   C 475.57 149.84 475.31 150.05 475.04 150.00   C 474.45 149.90 474.07 149.47 473.92 148.70   C 473.84 148.30 473.49 148.02 473.08 148.02   L 470.47 148.02   C 470.15 148.02 469.99 148.17 469.99 148.48   L 469.98 153.59   C 469.98 153.96 470.22 154.29 470.57 154.41   C 473.70 155.50 475.83 154.63 476.97 151.81   C 477.08 151.54 477.28 151.37 477.57 151.32   C 477.67 151.30 477.79 151.32 477.94 151.39   C 478.23 151.52 478.34 151.74 478.28 152.06   L 477.45 155.80   C 477.38 156.10 477.20 156.25 476.88 156.25   L 464.99 156.23   C 463.00 156.23 462.90 155.80 464.70 154.94   L 465.77 154.44   C 466.07 154.30 466.22 154.06 466.22 153.73   L 466.24 141.30   C 466.24 140.97 466.10 140.71 465.82 140.52   C 465.38 140.23 464.97 140.05 464.59 139.99   C 464.29 139.95 464.14 139.77 464.14 139.47   L 464.14 139.09   C 464.14 138.87 464.25 138.75 464.48 138.76   L 476.19 138.78   C 476.50 138.78 476.67 138.93 476.70 139.23   L 477.02 142.39   C 477.05 142.75 476.90 143.00 476.57 143.15   C 476.45 143.19 476.32 143.21 476.18 143.19   C 475.90 143.13 475.73 142.97 475.66 142.71   C 475.36 141.69 474.92 140.68 473.80 140.44   C 472.88 140.24 471.81 140.19 470.57 140.31   Z"
     id="path37"
     style="fill:#ffffff" />
  <path
     fill="#007d34"
     d="   M 520.54 154.53   C 523.38 155.38 525.30 154.40 526.29 151.59   C 526.40 151.28 526.66 151.18 527.05 151.27   C 527.40 151.35 527.62 151.70 527.54 152.05   L 526.74 155.70   C 526.66 156.07 526.43 156.25 526.06 156.25   L 513.70 156.25   C 513.32 156.25 513.15 155.77 513.44 155.53   L 513.79 155.24   C 514.03 155.04 514.30 154.92 514.60 154.89   C 515.62 154.76 516.15 154.11 516.18 152.94   C 516.21 151.87 516.25 148.64 516.28 143.24   C 516.29 141.27 515.70 140.20 514.51 140.05   C 514.19 140.01 514.03 139.83 514.03 139.50   L 514.03 139.13   C 514.03 138.88 514.16 138.75 514.41 138.75   L 521.45 138.75   C 522.72 138.75 522.83 139.12 521.80 139.85   C 521.58 140.00 521.16 140.20 520.54 140.43   C 520.17 140.56 519.99 140.83 519.99 141.22   L 519.99 153.79   C 519.99 154.18 520.17 154.42 520.54 154.53   Z"
     id="path38"
     style="fill:#ffffff" />
  <path
     fill="#007d34"
     d="   M 538.45 147.50   C 538.45 144.05 538.40 141.94 538.31 141.18   C 538.26 140.82 538.07 140.56 537.73 140.41   C 537.13 140.13 536.69 139.88 536.42 139.65   C 535.84 139.14 535.94 138.86 536.70 138.81   C 537.28 138.77 538.49 138.75 540.32 138.74   C 542.16 138.74 543.37 138.76 543.95 138.80   C 544.71 138.85 544.81 139.13 544.23 139.64   C 543.96 139.87 543.52 140.12 542.92 140.40   C 542.58 140.55 542.39 140.81 542.35 141.17   C 542.26 141.94 542.21 144.05 542.22 147.50   C 542.22 150.94 542.27 153.05 542.37 153.82   C 542.41 154.18 542.60 154.44 542.94 154.59   C 543.54 154.86 543.98 155.12 544.25 155.35   C 544.83 155.86 544.73 156.14 543.97 156.19   C 543.39 156.23 542.18 156.25 540.35 156.25   C 538.51 156.26 537.31 156.24 536.73 156.20   C 535.96 156.15 535.86 155.87 536.44 155.36   C 536.71 155.13 537.15 154.87 537.75 154.60   C 538.09 154.44 538.28 154.19 538.32 153.82   C 538.41 153.06 538.46 150.95 538.45 147.50   Z"
     id="path39"
     style="fill:#ffffff" />
  <path
     fill="#007d34"
     d="   M 629.45 140.49   C 629.12 140.65 628.94 140.91 628.90 141.26   C 628.64 143.40 628.51 145.43 628.49 147.34   C 628.46 150.30 628.22 152.22 627.76 153.11   C 626.36 155.82 623.82 156.91 620.13 156.40   C 616.69 155.91 614.91 153.77 614.81 149.98   C 614.75 147.83 614.73 144.95 614.74 141.36   C 614.74 141.01 614.59 140.74 614.31 140.53   C 613.91 140.24 613.45 140.01 612.92 139.84   C 612.69 139.77 612.54 139.67 612.48 139.55   C 612.37 139.37 612.32 139.24 612.33 139.17   C 612.36 138.89 612.50 138.75 612.74 138.75   L 620.42 138.77   C 620.78 138.77 620.95 139.22 620.67 139.46   L 618.96 140.88   C 618.76 141.04 618.65 141.25 618.62 141.49   C 618.46 142.79 618.43 145.21 618.55 148.73   C 618.62 150.76 619.14 153.50 621.23 154.21   C 624.56 155.33 626.54 153.06 626.93 149.95   C 627.08 148.76 627.09 146.44 626.95 142.99   C 626.87 141.24 626.10 140.20 624.64 139.87   C 624.43 139.82 624.28 139.70 624.21 139.49   C 624.16 139.36 624.16 139.24 624.19 139.13   C 624.26 138.88 624.43 138.75 624.69 138.75   L 630.67 138.75   C 630.93 138.75 631.06 138.88 631.06 139.14   L 631.06 139.53   C 631.06 139.65 631.00 139.74 630.89 139.79   L 629.45 140.49   Z"
     id="path40"
     style="fill:#ffffff" />
  <path
     fill="#007d34"
     d="   M 641.98 153.68   L 641.98 141.21   C 641.98 140.95 641.84 140.71 641.62 140.58   L 640.09 139.66   C 639.34 139.21 639.35 138.95 640.11 138.90   C 644.22 138.63 647.57 138.66 650.16 138.99   C 654.98 139.59 658.16 142.48 657.88 147.27   C 657.32 156.70 647.62 156.61 640.25 156.19   C 638.97 156.12 638.90 155.79 640.05 155.21   L 641.48 154.49   C 641.81 154.32 641.98 154.05 641.98 153.68   Z   M 645.71 141.43   L 645.79 153.51   C 645.80 154.20 646.36 154.75 647.05 154.75   L 647.69 154.74   C 650.92 154.72 653.52 151.94 653.50 148.52   L 653.48 146.30   C 653.46 142.89 650.82 140.14 647.59 140.16   L 646.95 140.17   C 646.26 140.17 645.70 140.74 645.71 141.43   Z"
     id="path41"
     style="fill:#ffffff" />
  <path
     fill="#007d34"
     d="   M 673.05 147.50   C 673.04 150.95 673.08 153.05 673.17 153.82   C 673.21 154.18 673.40 154.44 673.74 154.59   C 674.34 154.87 674.78 155.12 675.05 155.36   C 675.62 155.87 675.53 156.14 674.76 156.20   C 674.18 156.23 672.97 156.25 671.14 156.25   C 669.31 156.24 668.10 156.22 667.52 156.18   C 666.76 156.12 666.66 155.84 667.24 155.34   C 667.51 155.10 667.95 154.85 668.55 154.58   C 668.89 154.43 669.09 154.17 669.13 153.81   C 669.22 153.04 669.28 150.94 669.28 147.49   C 669.29 144.05 669.25 141.94 669.16 141.18   C 669.12 140.81 668.93 140.56 668.59 140.40   C 667.99 140.13 667.55 139.87 667.28 139.64   C 666.71 139.13 666.81 138.85 667.57 138.80   C 668.15 138.76 669.36 138.75 671.19 138.75   C 673.02 138.76 674.23 138.78 674.81 138.82   C 675.57 138.87 675.67 139.15 675.09 139.66   C 674.82 139.89 674.38 140.14 673.78 140.41   C 673.44 140.57 673.25 140.82 673.20 141.19   C 673.11 141.95 673.06 144.06 673.05 147.50   Z"
     id="path42"
     style="fill:#ffffff" />
  <path
     fill="#007d34"
     d="   M 700.01 154.49   C 700.34 154.32 700.51 154.05 700.50 153.68   L 700.46 141.19   C 700.46 140.93 700.33 140.69 700.10 140.56   L 698.57 139.65   C 697.82 139.19 697.82 138.94 698.58 138.88   C 702.70 138.60 706.06 138.62 708.65 138.94   C 713.48 139.53 716.67 142.41 716.41 147.21   C 715.88 156.66 706.16 156.60 698.78 156.20   C 697.50 156.13 697.43 155.80 698.58 155.22   L 700.01 154.49   Z   M 704.21 141.87   L 704.31 153.07   C 704.32 154.02 705.09 154.79 706.04 154.78   L 706.20 154.78   C 709.56 154.75 712.26 151.80 712.23 148.19   L 712.21 146.63   C 712.18 143.01 709.43 140.11 706.08 140.14   L 705.92 140.14   C 704.97 140.15 704.20 140.93 704.21 141.87   Z"
     id="path43"
     style="fill:#ffffff" />
  <path
     fill="#007d34"
     d="   M 728.00 147.51   C 728.00 144.05 727.95 141.95 727.85 141.18   C 727.81 140.82 727.62 140.56 727.28 140.41   C 726.68 140.13 726.24 139.88 725.96 139.65   C 725.39 139.14 725.48 138.86 726.25 138.81   C 726.83 138.77 728.04 138.74 729.87 138.74   C 731.71 138.74 732.92 138.76 733.50 138.80   C 734.26 138.85 734.36 139.13 733.79 139.64   C 733.51 139.87 733.07 140.12 732.47 140.40   C 732.13 140.55 731.94 140.81 731.90 141.18   C 731.81 141.94 731.77 144.05 731.77 147.50   C 731.78 150.95 731.83 153.06 731.92 153.83   C 731.96 154.19 732.15 154.45 732.49 154.60   C 733.10 154.87 733.53 155.13 733.81 155.36   C 734.38 155.87 734.29 156.15 733.52 156.20   C 732.94 156.24 731.73 156.26 729.90 156.27   C 728.06 156.27 726.86 156.25 726.28 156.21   C 725.51 156.16 725.41 155.88 725.99 155.37   C 726.26 155.14 726.70 154.88 727.30 154.61   C 727.64 154.46 727.83 154.20 727.87 153.83   C 727.96 153.07 728.01 150.96 728.00 147.51   Z"
     id="path44"
     style="fill:#ffffff" />
  <path
     fill="#007d34"
     d="   M 763.39 148.75   C 763.09 148.67 762.94 148.79 762.94 149.09   L 762.94 153.80   C 762.94 154.12 763.14 154.40 763.43 154.51   L 764.66 155.01   C 764.90 155.10 765.04 155.27 765.09 155.52   C 765.11 155.65 765.10 155.78 765.07 155.90   C 764.99 156.12 764.83 156.24 764.59 156.24   L 757.24 156.24   C 756.94 156.24 756.73 155.92 756.86 155.64   C 756.92 155.48 756.98 155.37 757.03 155.30   C 757.10 155.20 757.23 155.12 757.40 155.05   C 757.84 154.88 758.27 154.69 758.68 154.46   C 758.97 154.29 759.12 154.05 759.13 153.71   C 759.22 146.96 759.23 142.89 759.17 141.51   C 759.14 140.72 758.59 140.22 757.53 140.01   C 757.26 139.96 757.11 139.80 757.08 139.54   C 757.06 139.46 757.07 139.36 757.10 139.24   C 757.15 138.95 757.32 138.80 757.61 138.79   C 762.62 138.59 766.20 138.78 768.36 139.36   C 769.70 139.71 770.56 140.63 770.92 142.13   C 771.52 144.58 770.75 146.35 768.60 147.46   C 768.18 147.67 768.08 147.99 768.29 148.41   C 769.90 151.55 771.58 153.88 773.34 155.42   C 773.94 155.95 773.84 156.21 773.04 156.21   L 770.51 156.21   C 769.33 156.21 768.23 155.61 767.58 154.62   C 766.55 153.03 765.61 151.40 764.75 149.73   C 764.65 149.55 764.46 149.36 764.19 149.16   C 763.92 148.97 763.66 148.83 763.39 148.75   Z   M 763.05 140.70   L 762.95 146.94   C 762.95 147.24 763.19 147.49 763.49 147.50   L 763.93 147.50   C 765.66 147.53 767.09 146.06 767.11 144.21   L 767.12 143.55   C 767.15 141.71 765.78 140.19 764.05 140.16   L 763.61 140.16   C 763.30 140.15 763.05 140.39 763.05 140.70   Z"
     id="path45"
     style="fill:#ffffff" />
  <path
     fill="#007d34"
     d="   M 813.51 143.76   C 813.29 143.21 813.16 143.23 813.13 143.82   C 813.00 145.90 812.90 147.99 812.83 150.09   C 812.83 150.18 812.76 150.79 812.62 151.92   C 812.41 153.66 813.17 154.75 814.89 155.20   C 815.14 155.26 815.30 155.41 815.37 155.66   C 815.40 155.76 815.41 155.85 815.39 155.93   C 815.34 156.14 815.22 156.24 815.01 156.24   L 809.60 156.24   C 808.13 156.24 808.02 155.86 809.27 155.09   C 810.41 154.40 811.01 153.39 811.08 152.06   C 811.13 150.85 811.16 150.21 811.17 150.15   C 811.52 146.62 811.72 143.69 811.75 141.36   C 811.76 141.03 811.62 140.78 811.33 140.61   L 809.73 139.68   C 808.68 139.07 808.77 138.77 809.98 138.77   L 814.89 138.77   C 815.25 138.77 815.49 138.94 815.62 139.27   L 819.70 149.65   C 819.85 150.04 820.41 150.04 820.56 149.65   L 824.71 139.31   C 824.87 138.92 825.16 138.72 825.58 138.73   L 830.50 138.79   C 830.75 138.79 830.87 138.97 830.88 139.32   C 830.88 139.39 830.86 139.47 830.83 139.58   C 830.79 139.70 830.68 139.78 830.56 139.79   C 828.95 139.93 828.26 141.08 828.49 143.25   C 828.56 143.95 828.66 147.36 828.79 153.48   C 828.80 154.36 829.34 154.83 830.41 154.90   C 830.77 154.93 830.96 155.12 830.97 155.47   L 830.99 155.78   C 831.00 156.09 830.85 156.25 830.53 156.25   L 823.57 156.25   C 823.20 156.25 823.01 156.07 822.99 155.71   C 822.98 155.52 823.01 155.35 823.09 155.22   C 823.16 155.11 823.30 155.02 823.49 154.97   C 823.92 154.85 824.28 154.71 824.56 154.54   C 824.85 154.37 824.99 154.12 824.99 153.79   L 824.99 144.40   C 824.99 143.08 824.74 143.03 824.23 144.25   L 819.52 155.62   C 819.27 156.23 818.40 156.22 818.16 155.61   L 813.51 143.76   Z"
     id="path46"
     style="fill:#ffffff" />
</svg>
