<?xml version="1.0" encoding="UTF-8" standalone="no"?>
<svg
   data-name="Layer 1"
   id="Layer_1"
   viewBox="0 0 100 100"
   version="1.1"
   sodipodi:docname="problem_solving.svg"
   inkscape:version="1.4 (e7c3feb100, 2024-10-09)"
   width="100"
   height="100"
   xmlns:inkscape="http://www.inkscape.org/namespaces/inkscape"
   xmlns:sodipodi="http://sodipodi.sourceforge.net/DTD/sodipodi-0.dtd"
   xmlns="http://www.w3.org/2000/svg"
   xmlns:svg="http://www.w3.org/2000/svg">
  <sodipodi:namedview
     id="namedview19"
     pagecolor="#ffffff"
     bordercolor="#000000"
     borderopacity="0.25"
     inkscape:showpageshadow="2"
     inkscape:pageopacity="0.0"
     inkscape:pagecheckerboard="0"
     inkscape:deskcolor="#d1d1d1"
     inkscape:zoom="4.0740065"
     inkscape:cx="-28.718659"
     inkscape:cy="45.900762"
     inkscape:window-width="1920"
     inkscape:window-height="1011"
     inkscape:window-x="0"
     inkscape:window-y="0"
     inkscape:window-maximized="1"
     inkscape:current-layer="Layer_1" />
  <defs
     id="defs1">
    <style
       id="style1">.cls-1{fill:#231f20;}.cls-2{fill:#00a1d3;}.cls-3{fill:#d12200;}.cls-4{fill:#ffba50;}.cls-5{fill:#8d7f89;}</style>
  </defs>
  <title
     id="title1" />
  <g
     id="g20"
     transform="matrix(2.6148285,0,0,2.6148285,-16.243483,-11.950714)">
    <path
       class="cls-1"
       d="m 23.141854,30.892297 a 3.513,3.513 0 0 0 -1.736,0.463 v -3.5 a 0.5,0.5 0 0 0 -0.5,-0.5 h -4.521 a 0.5,0.5 0 0 0 -0.339,0.867 2.51,2.51 0 0 1 0.825,1.861 2.5380005,2.5380005 0 0 1 -5.076001,0 2.51,2.51 0 0 1 0.825,-1.861 0.5,0.5 0 0 0 -0.339,-0.867 h -4.521 a 0.5,0.5 0 0 0 -0.5,0.5 v 11.145 a 2.5,2.5 0 0 0 2.5,2.5 h 11.146001 a 0.5,0.5 0 0 0 0.5,-0.5 v -3.5 a 3.535,3.535 0 1 0 1.736,-6.613 z"
       id="path2"
       style="fill:#201847;fill-opacity:1;stroke:none;stroke-opacity:1" />
    <path
       class="cls-1"
       d="m 42.999405,27.502816 h -3.494 a 3.476,3.476 0 0 0 0.459,-1.736 3.538,3.538 0 0 0 -7.076,0 3.476,3.476 0 0 0 0.459,1.736 h -3.494 a 0.5,0.5 0 0 0 -0.5,0.5 v 4.521 a 0.5,0.5 0 0 0 0.867,0.339 2.509,2.509 0 0 1 1.86,-0.825 2.538,2.538 0 1 1 0,5.076 2.509,2.509 0 0 1 -1.86,-0.825 0.5,0.5 0 0 0 -0.867,0.339 v 4.518 a 0.5,0.5 0 0 0 0.5,0.5 h 11.146 a 2.5,2.5 0 0 0 2.5,-2.5 v -11.143 a 0.5,0.5 0 0 0 -0.5,-0.5 z"
       id="path4"
       style="fill:#201847;fill-opacity:1;stroke:none;stroke-opacity:1" />
    <path
       class="cls-1"
       d="m 29.263487,6.383354 v 3.494 a 3.476,3.476 0 0 0 -1.736,-0.459 3.538,3.538 0 0 0 0,7.076 3.476,3.476 0 0 0 1.736,-0.459 v 3.494 a 0.5,0.5 0 0 0 0.5,0.5 h 4.521 a 0.5,0.5 0 0 0 0.339,-0.867 2.509,2.509 0 0 1 -0.825,-1.86 2.538,2.538 0 1 1 5.076,0 2.509,2.509 0 0 1 -0.825,1.86 0.5,0.5 0 0 0 0.339,0.867 h 4.518 a 0.5,0.5 0 0 0 0.5,-0.5 v -11.146 a 2.5,2.5 0 0 0 -2.5,-2.5 h -11.143 a 0.5,0.5 0 0 0 -0.5,0.5 z"
       id="path19"
       style="fill:#201847;fill-opacity:1;stroke:none;stroke-opacity:1" />
    <path
       class="cls-1"
       d="M 7.6681498,19.881335 H 11.16215 a 3.476,3.476 0 0 0 -0.459,1.736 3.5380001,3.5380001 0 0 0 7.076,0 3.476,3.476 0 0 0 -0.459,-1.736 h 3.494 a 0.5,0.5 0 0 0 0.5,-0.5 v -4.521 a 0.5,0.5 0 0 0 -0.867,-0.339 2.509,2.509 0 0 1 -1.86,0.825 2.538,2.538 0 1 1 0,-5.076 2.509,2.509 0 0 1 1.86,0.825 0.5,0.5 0 0 0 0.867,-0.339 v -4.518 a 0.5,0.5 0 0 0 -0.5,-0.5 H 9.6681498 a 2.5,2.5 0 0 0 -2.5,2.5 v 11.143 a 0.5,0.5 0 0 0 0.5,0.5 z"
       id="path20"
       style="fill:#201847;fill-opacity:1;stroke:none;stroke-opacity:1" />
  </g>
</svg>
